<svg xmlns="http://www.w3.org/2000/svg" width="300" height="300" viewBox="0 0 25 25" shape-rendering="crispEdges"><path fill="#FFFFFF" d="M0 0h25v25H0z"/><path stroke="#2E7D32" d="M2 2.5h7m1 0h1m1 0h1m1 0h1m1 0h7M2 3.5h1m5 0h1m2 0h2m3 0h1m5 0h1M2 4.5h1m1 0h3m1 0h1m2 0h1m1 0h1m2 0h1m1 0h3m1 0h1M2 5.5h1m1 0h3m1 0h1m1 0h1m3 0h1m1 0h1m1 0h3m1 0h1M2 6.5h1m1 0h3m1 0h1m1 0h2m2 0h1m1 0h1m1 0h3m1 0h1M2 7.5h1m5 0h1m1 0h4m2 0h1m5 0h1M2 8.5h7m1 0h1m1 0h1m1 0h1m1 0h7M10 9.5h1m2 0h2M2 10.5h1m3 0h1m1 0h3m1 0h2m1 0h5m2 0h1M6 11.5h1m4 0h1m2 0h2m1 0h2m2 0h2M2 12.5h5m1 0h1m2 0h1m1 0h1m2 0h3m1 0h2M2 13.5h1m2 0h1m4 0h1m2 0h1m2 0h3m2 0h1M4 14.5h7m3 0h1m1 0h1m3 0h2M10 15.5h1m5 0h1m1 0h2m1 0h2M2 16.5h7m1 0h1m2 0h1m1 0h1m1 0h2m1 0h2M2 17.5h1m5 0h1m2 0h1m1 0h1m1 0h1m6 0h1M2 18.5h1m1 0h3m1 0h1m1 0h5m1 0h3m1 0h1m1 0h1M2 19.5h1m1 0h3m1 0h1m2 0h7m1 0h1m1 0h2M2 20.5h1m1 0h3m1 0h1m2 0h3m1 0h1m2 0h1m1 0h1M2 21.5h1m5 0h1m7 0h3M2 22.5h7m1 0h2m1 0h2m2 0h1m1 0h2m1 0h1"/></svg>
