<?xml version="1.0" encoding="UTF-8"?>
<svg id="Layer_1" xmlns="http://www.w3.org/2000/svg" version="1.1" viewBox="0 0 400 400">
  <!-- Generator: Adobe Illustrator 29.7.1, SVG Export Plug-In . SVG Version: 2.1.1 Build 8)  -->
  <defs>
    <style>
      .st0 {
        fill: gold;
      }
    </style>
  </defs>
  <rect class="st0" y="0" width="400" height="400"/>
  <g>
    <g>
      <path d="M48.8,210.2c-5.6,0-10.3,4.7-10.3,10.3v61.7c0,5.8,4.7,10.4,10.3,10.4s10.1-4.7,10.1-10.4v-61.7c0-5.6-4.7-10.3-10.1-10.3Z"/>
      <path d="M48.8,178.9c-5.6,0-10.4,4.7-10.4,10.1s4.8,10.1,10.4,10.1,10.3-4.7,10.3-10.1-4.8-10.1-10.3-10.1Z"/>
      <path d="M117.7,246.9l22.5-20.9c1.6-1.7,2.5-3.9,2.5-6.5,0-4.8-4.1-9.2-9.2-9.2s-5.1,1.2-6.9,3l-30.9,30.2v-52.9c0-5.5-4.7-10.1-10.1-10.1s-10.3,4.7-10.3,10.1v91.8c0,5.6,4.7,10.1,10.3,10.1s10.1-4.5,10.1-10.1v-15l9.4-8.7,27.9,31c1.4,1.7,3.7,2.8,6.2,2.8,5.1,0,9-4.2,9-8.9s-1.2-4.8-2.7-6.2l-27.9-30.6Z"/>
      <path d="M261,209.8c-10.6,0-23.3,4.9-31.8,14.6-8.6-9.8-21.2-14.6-31.8-14.6-17.9,0-41.6,13.9-41.6,41.6s23.7,41.5,41.6,41.5,23.2-4.8,31.8-14.5c8.5,9.7,21.2,14.5,31.9,14.5,17.8,0,41.6-13.6,41.6-41.5s-23.9-41.6-41.6-41.6ZM197.8,275.1c-11.1,0-21.4-8.7-21.4-23.7s10.3-23.9,21.4-23.9,21.4,8.7,21.4,23.9-10.4,23.7-21.4,23.7ZM261,275.1c-11.1,0-21.4-8.7-21.4-23.7s10.3-23.9,21.4-23.9,21.4,8.7,21.4,23.9-10.4,23.7-21.4,23.7Z"/>
      <path d="M354.1,274.3c-1.7,0-4.2.6-5.9.6-3.4,0-5-2.3-5-6.9v-41.3h10.3c5.1,0,8.3-3.3,8.3-8s-3.1-8.1-8.3-8.1h-10.3v-10.6c0-5.6-4.5-10.3-10.1-10.3s-10.3,4.7-10.3,10.3v10.6h-4.5c-5,0-8.3,3.3-8.3,8.1s3.3,8,8.3,8h4.5v40.7c0,21.7,10.8,25.1,21.4,25.1s17.6-3.7,17.6-10.9-3-7.6-7.6-7.3Z"/>
    </g>
    <g>
      <path d="M238.7,148.9c-.3,0-.5,0-.8-.2l-9.4-4.9-9.4,4.9c-.6.3-1.2.2-1.8-.1-.5-.4-.8-1-.7-1.6l1.8-10.5-7.6-7.4c-.5-.4-.6-1.1-.4-1.7.2-.6.7-1,1.3-1.1l10.5-1.5,4.7-9.5c.3-.6.9-.9,1.5-.9s1.2.4,1.5.9l4.7,9.5,10.5,1.5c.6,0,1.2.5,1.3,1.1.2.6,0,1.3-.4,1.7l-7.6,7.4,1.8,10.5c.1.6-.2,1.3-.7,1.6-.3.2-.6.3-1,.3ZM228.5,140.2c.3,0,.5,0,.8.2l7.2,3.8-1.4-8c0-.5,0-1.1.5-1.5l5.8-5.7-8-1.2c-.5,0-1-.4-1.3-.9l-3.6-7.3-3.6,7.3c-.2.5-.7.8-1.3.9l-8,1.2,5.8,5.7c.4.4.6.9.5,1.5l-1.4,8,7.2-3.8c.2-.1.5-.2.8-.2Z"/>
      <path d="M266.8,189.6c-.6,0-1.2-.3-1.5-.9l-3.4-6.7-7.4-.9c-.6,0-1.2-.5-1.4-1.1-.2-.6,0-1.3.4-1.7l5.3-5.3-1.4-7.4c-.1-.6.1-1.3.6-1.6.5-.4,1.2-.4,1.8-.2l6.7,3.4,6.6-3.6c.6-.3,1.2-.3,1.8,0,.5.4.8,1,.7,1.6l-1.1,7.4,5.5,5.1c.5.4.6,1.1.5,1.7-.2.6-.7,1.1-1.3,1.2l-7.4,1.2-3.2,6.8c-.3.6-.8.9-1.5,1,0,0,0,0,0,0ZM258.3,178.3l4.9.6c.5,0,1,.4,1.3.9l2.3,4.4,2.1-4.5c.2-.5.7-.8,1.2-.9l4.9-.8-3.6-3.4c-.4-.4-.6-.9-.5-1.5l.8-4.9-4.4,2.4c-.5.3-1.1.3-1.6,0l-4.4-2.2.9,4.9c.1.5,0,1.1-.5,1.5l-3.5,3.5Z"/>
      <path d="M182.8,145.3c-.6,0-1.2-.3-1.5-.9l-3.4-6.7-7.4-.9c-.6,0-1.2-.5-1.4-1.1-.2-.6,0-1.3.4-1.7l5.3-5.3-1.4-7.4c-.1-.6.1-1.3.6-1.6.5-.4,1.2-.4,1.8-.2l6.7,3.4,6.6-3.6c.6-.3,1.2-.3,1.8,0,.5.4.8,1,.7,1.6l-1.1,7.4,5.5,5.1c.5.4.6,1.1.5,1.7-.2.6-.7,1.1-1.3,1.2l-7.4,1.2-3.2,6.8c-.3.6-.8.9-1.5,1,0,0,0,0,0,0ZM174.2,133.9l4.9.6c.5,0,1,.4,1.3.9l2.3,4.4,2.1-4.5c.2-.5.7-.8,1.2-.9l4.9-.8-3.6-3.4c-.4-.4-.6-.9-.5-1.5l.8-4.9-4.4,2.4c-.5.3-1.1.3-1.6,0l-4.4-2.2.9,4.9c.1.5,0,1.1-.5,1.5l-3.5,3.5Z"/>
      <path d="M280.6,125.9c-.2,0-.5,0-.7-.2l-4.2-2.2-4.2,2.2c-.5.3-1.1.2-1.5-.1-.4-.3-.7-.9-.6-1.4l.8-4.7-3.4-3.3c-.4-.4-.5-1-.4-1.5.2-.5.6-.9,1.2-1l4.7-.7,2.1-4.3c.2-.5.7-.8,1.3-.8s1.1.3,1.3.8l2.1,4.3,4.7.7c.5,0,1,.5,1.2,1,.2.5,0,1.1-.4,1.5l-3.4,3.3.8,4.7c0,.5-.1,1.1-.6,1.4-.3.2-.6.3-.9.3ZM275.7,120.4c.2,0,.5,0,.7.2l2.3,1.2-.4-2.6c0-.5,0-.9.4-1.3l1.9-1.8-2.6-.4c-.5,0-.9-.4-1.1-.8l-1.2-2.4-1.2,2.4c-.2.4-.6.7-1.1.8l-2.6.4,1.9,1.8c.3.3.5.8.4,1.3l-.4,2.6,2.3-1.2c.2-.1.4-.2.7-.2Z"/>
      <path d="M195.9,181.1c-.2,0-.5,0-.7-.2l-4.2-2.2-4.2,2.2c-.5.3-1.1.2-1.5-.1-.4-.3-.7-.9-.6-1.4l.8-4.7-3.4-3.3c-.4-.4-.5-1-.4-1.5.2-.5.6-.9,1.2-1l4.7-.7,2.1-4.3c.2-.5.7-.8,1.3-.8s1.1.3,1.3.8l2.1,4.3,4.7.7c.5,0,1,.5,1.2,1,.2.5,0,1.1-.4,1.5l-3.4,3.3.8,4.7c0,.5-.1,1.1-.6,1.4-.3.2-.6.3-.9.3ZM191,175.6c.2,0,.5,0,.7.2l2.3,1.2-.4-2.6c0-.5,0-.9.4-1.3l1.9-1.8-2.6-.4c-.5,0-.9-.4-1.1-.8l-1.2-2.4-1.2,2.4c-.2.4-.6.7-1.1.8l-2.6.4,1.9,1.8c.3.3.5.8.4,1.3l-.4,2.6,2.3-1.2c.2-.1.4-.2.7-.2Z"/>
      <path d="M218.3,203.6c-.1,0-.3,0-.4,0-1.2-.2-2-1.3-1.8-2.5,0-.4,4.6-28.3-16.7-57.9-.7-1-.5-2.3.5-3,1-.7,2.3-.5,3,.5,22.5,31.2,17.7,60,17.5,61.2-.2,1.1-1.1,1.8-2.1,1.8Z"/>
      <path d="M228.5,203.6c-1.2,0-2.2-1-2.2-2.2v-45.3c0-1.2,1-2.2,2.2-2.2s2.2,1,2.2,2.2v45.3c0,1.2-1,2.2-2.2,2.2Z"/>
      <path d="M238.6,203.6c-1.1,0-2.1-.8-2.2-2,0-.6-1.4-16,3-30.7,4.6-15.3,7.8-24.1,25.6-42.4.8-.9,2.2-.9,3.1,0,.9.8.9,2.2,0,3.1-17.9,18.4-20.4,26.7-24.5,40.6-4.2,13.9-2.8,28.9-2.8,29.1.1,1.2-.8,2.3-2,2.4,0,0-.1,0-.2,0Z"/>
    </g>
  </g>
</svg>